<svg width="1331" height="244" viewBox="0 0 1331 244" fill="none" xmlns="http://www.w3.org/2000/svg">
<g clip-path="url(#clip0_337_2)">
<path d="M878.9 175.9H851.84V0H734.57V175.9H707.51V0H653.39V175.9L721.05 243.55H766.14V175.9H820.27V243.55H865.37L933.02 175.9V0H878.9V175.9Z" fill="black"/>
<path d="M1179.93 0H1116.79V243.55H1179.93V0Z" fill="black"/>
<path d="M993.42 54.1299L939.3 121.78V175.9L993.42 243.55H1056.56L1110.68 175.9V121.78L1056.56 54.1299H993.42ZM1052.05 175.9H997.93V121.78H1052.05V175.9Z" fill="black"/>
<path d="M1249.35 54.1298H1186.21V243.55H1249.35V175.9H1330.53V121.78H1262.88L1330.53 54.1298V0.00976562H1249.35V54.1298Z" fill="black"/>
<path d="M147.19 121.77V175.89L210.34 243.54H291.52L228.38 175.89H291.52V54.1201H228.38L147.19 121.77ZM219.35 175.89H192.29V121.77H219.35V175.89Z" fill="black"/>
<path d="M444.98 121.77V175.89L508.13 243.54H589.31L526.17 175.89H589.31V54.1201H526.17L444.98 121.77ZM517.14 175.89H490.08V121.77H517.14V175.89Z" fill="black"/>
<path d="M360.93 0.00976562H297.79V175.9H360.93V243.55H442.12V175.9L374.46 121.78H442.12V54.1298H360.93V0.00976562Z" fill="black"/>
<path d="M0 0V243.55H63.14V175.9L144.32 121.77V54.12L90.21 0H0ZM67.65 121.77H40.59V54.12H67.65V121.77Z" fill="black"/>
<path d="M656.37 209.52H633.69L648.81 190.62V175.5H608.48V209.53H593.36V243.56H633.44V217.1H639.42V243.56H656.37V209.52ZM623.61 224.65H609.75V217.09H623.61V224.65ZM631.17 198.18H623.61V185.58H631.17V198.18Z" fill="black"/>
</g>
<defs>
<clipPath id="clip0_337_2">
<rect width="1330.53" height="243.55" fill="white"/>
</clipPath>
</defs>
</svg>
